<svg xmlns="http://www.w3.org/2000/svg" xmlns:xlink="http://www.w3.org/1999/xlink" width="267.307" height="54.454" viewBox="0 0 267.307 54.454">
  <defs>
    <clipPath id="clip-path">
      <path id="Path_3292" data-name="Path 3292" d="M0-27.814H267.307V-82.268H0Z" transform="translate(0 82.268)" fill="none"/>
    </clipPath>
  </defs>
  <g id="Group_12940" data-name="Group 12940" transform="translate(0 82.268)">
    <g id="Group_12936" data-name="Group 12936" transform="translate(0 -81.523)">
      <path id="Path_3289" data-name="Path 3289" d="M0,0,1.976,4.479,0,8.956H3.1L5.072,4.479,3.1,0Z" fill="#2b2e34"/>
    </g>
    <g id="Group_12937" data-name="Group 12937" transform="translate(4.215 -81.523)">
      <path id="Path_3290" data-name="Path 3290" d="M-1.009-2.287-2.985-6.766h1.779L.769-2.287-1.206,2.191H-2.985Z" transform="translate(2.985 6.766)" fill="#2b2e34"/>
    </g>
    <g id="Group_12939" data-name="Group 12939" transform="translate(0 -82.268)" clip-path="url(#clip-path)">
      <g id="Group_12938" data-name="Group 12938" transform="translate(9.636 0)">
        <path id="Path_3291" data-name="Path 3291" d="M0-19.42C.516-8.883,5.526-3.062,14-2.989c8.105.074,13.926-5.231,13.926-14,0-5.379-2.21-10.685-7.59-15.474l-4.494-4.052c-3.021-2.726-4.569-4.569-4.569-7.368,0-2.579,1.105-4.053,2.948-4.053,2.358,0,3.242,2.432,3.684,6.19l9.579-.369c-.737-10.094-5.305-15.253-13.116-15.326S.884-52.136.811-43.147A18.7,18.7,0,0,0,7.59-28.557L12.084-24.5c3.243,2.8,4.937,5.232,4.937,8.105,0,2.579-1.253,3.979-3.169,3.979-2.579,0-3.831-2.652-4.421-7.442ZM30.873-3.873H41.41l-.074-5.379V-23.989h1.916c11.495,0,14.295-7.221,14.295-16.21v-.148c0-8.989-2.874-16.21-14.516-16.21H30.873l.073,5.379V-9.252ZM41.336-32.757V-47.715h1.18c3.831,0,4.715,3.1,4.715,7.221v.442c0,3.979-.884,7.295-4.715,7.295ZM73.609-2.989c4.274,0,7.295-1.1,9.358-3.168,2.8-2.726,4.2-7.147,4.2-17.316v-13.41c0-9.947-1.326-14.589-4.2-17.389-2.063-1.99-5.084-3.169-9.358-3.169s-7.221,1.179-9.358,3.169c-2.873,2.8-4.126,7.442-4.126,17.389v13.41c0,10.169,1.326,14.59,4.126,17.316,2.137,2.063,5.084,3.168,9.358,3.168m0-9.505c-3.021,0-3.021-3.242-3.021-8.916V-39.094c0-5.6,0-8.843,3.021-8.843,3.094,0,3.094,3.242,3.094,8.843V-21.41c0,5.674,0,8.916-3.094,8.916m30.283-12.379,4.347,21h10.979l-5.747-23.874c3.463-2.8,4.79-7.368,4.79-12.6v-.148c0-8.768-2.874-16.063-14.295-16.063H91.587l.073,5.379V-9.252l-.073,5.379h10.537l-.074-5.379V-24.873ZM102.05-47.715h1.179c3.832,0,4.716,3.1,4.716,7v.22c0,3.832-.884,7-4.79,7H102.05Zm42.147.221v-9.063H118.777v9.063h7.515V-9.252l-.073,5.379h10.537l-.074-5.379V-47.494Zm1.1,28.074c.516,10.537,5.526,16.358,14,16.431,8.105.074,13.926-5.231,13.926-14,0-5.379-2.21-10.685-7.59-15.474l-4.494-4.052c-3.021-2.726-4.569-4.569-4.569-7.368,0-2.579,1.105-4.053,2.948-4.053,2.358,0,3.242,2.432,3.684,6.19l9.579-.369c-.737-10.094-5.305-15.253-13.116-15.326s-13.484,5.305-13.558,14.295a18.7,18.7,0,0,0,6.779,14.589l4.494,4.053c3.243,2.8,4.937,5.232,4.937,8.105,0,2.579-1.253,3.979-3.169,3.979-2.579,0-3.832-2.652-4.421-7.442Zm54.01-28.074v-9.063H173.892v9.063h7.515V-9.252l-.073,5.379h10.537L191.8-9.252V-47.494Zm9.506,33.527h7.368l1.18,10.095h10.242L219.65-56.557H205.429L197.545-3.873h10.094Zm2.652-21.884c.369-2.653.737-6.485.958-8.547h.295c.148,2.063.516,5.894.884,8.547l1.474,12.674h-5.158Zm30.874,10.979,4.347,21H257.67l-5.747-23.874c3.463-2.8,4.79-7.368,4.79-12.6v-.148c0-8.768-2.873-16.063-14.295-16.063H230.039l.073,5.379V-9.252l-.073,5.379h10.537L240.5-9.252V-24.873ZM240.5-47.715h1.179c3.831,0,4.715,3.1,4.715,7v.22c0,3.832-.884,7-4.79,7h-1.1Z" transform="translate(0 57.442)" fill="#d10a10"/>
      </g>
    </g>
  </g>
</svg>
